<svg xmlns="http://www.w3.org/2000/svg" width="16.819" height="10.95"><g><g fill="#727272"><path d="M12.614,3.159A3.594,3.594 0,0 1,9.953 1.752c-0.5,-0.514 -0.939,-0.958 -1.544,-0.958s-1.027,0.441 -1.527,0.951A3.606,3.606 0,0 1,4.2 3.159,3.6 3.6,0 0,1 1.544,1.752c-0.5,-0.514 -0.94,-0.958 -1.544,-0.958v-0.791a2.972,2.972 0,0 1,2.108 1.195,2.882 2.882,0 0,0 2.1,1.174 2.9,2.9 0,0 0,2.113 -1.18A2.948,2.948 0,0 1,8.41 0a2.971,2.971 0,0 1,2.108 1.195,2.883 2.883,0 0,0 2.1,1.174 2.9,2.9 0,0 0,2.113 -1.18,2.949 2.949,0 0,1 2.092,-1.189v0.791c-0.6,0 -1.028,0.441 -1.527,0.951A3.608,3.608 0,0 1,12.614 3.159Z"/><path d="M11.26,6.981l-2.454,2.454L8.806,3.159L8.014,3.159L8.014,9.436l-2.443,-2.442 -0.559,0.559 3.4,3.4 3.409,-3.409Z" /></g></g></svg>
